<svg xmlns="http://www.w3.org/2000/svg" viewBox="0 0 281.3 324.1"><defs><style>.cls-1{fill:#fbb040;}.cls-2{fill:#00aeef;}</style></defs><title>Asset 1</title><g id="Layer_2" data-name="Layer 2"><g id="Capa_1" data-name="Capa 1"><polygon class="cls-1" points="123.4 124.4 143.8 144.7 172.7 144.6 162.5 100.4 123.4 124.4"/><polygon class="cls-1" points="180.4 152.4 180.4 181.1 200.8 201.3 225.1 162.9 180.4 152.4"/><polygon class="cls-1" points="200.8 212.2 180.4 232.5 180.4 261.2 224.9 251.1 200.8 212.2"/><polygon class="cls-1" points="172.7 268.9 143.8 268.9 123.4 289.2 162.1 313.4 172.7 268.9"/><polygon class="cls-1" points="112.5 289.2 92.1 268.9 63.2 269 73.4 313.2 112.5 289.2"/><polygon class="cls-1" points="55.5 261.2 55.5 232.5 35 212.3 10.8 250.7 55.5 261.2"/><polygon class="cls-1" points="35.1 201.4 55.5 181.1 55.4 152.4 11 162.5 35.1 201.4"/><polygon class="cls-1" points="63.2 144.7 92.1 144.7 112.5 124.4 73.8 100.3 63.2 144.7"/><path class="cls-2" d="M156.7,96a118,118,0,0,0-35.3-6.4v28.1Z"/><path class="cls-2" d="M198.9,121.5a117.15,117.15,0,0,0-29.1-20.1l9.1,39.9Z"/><path class="cls-2" d="M224.2,155.7a115.87,115.87,0,0,0-20.4-29.4l-20,19.9Z"/><path class="cls-2" d="M235.9,203.4a114.21,114.21,0,0,0-6.3-34.6l-22,34.6Z"/><path class="cls-2" d="M229.4,245.3a116.15,116.15,0,0,0,6.5-35.1H207.6Z"/><path class="cls-2" d="M203.7,287.3a121.09,121.09,0,0,0,20.2-28.9l-40.2,9.1Z"/><path class="cls-2" d="M169.3,312.4a116.46,116.46,0,0,0,29.6-20.3l-20-19.9Z"/><path class="cls-2" d="M121.3,324.1a116.12,116.12,0,0,0,34.9-6.3L121.3,296Z"/><path class="cls-2" d="M79.2,317.6a114.9,114.9,0,0,0,35.3,6.4V295.9Z"/><path class="cls-2" d="M37,292.1a119.87,119.87,0,0,0,29.1,20.1L57,272.3Z"/><path class="cls-2" d="M11.7,257.9a117.65,117.65,0,0,0,20.4,29.4l20-19.9Z"/><path class="cls-2" d="M0,210.2a115.41,115.41,0,0,0,6.3,34.7l21.9-34.7Z"/><path class="cls-2" d="M6.5,168.3A114.26,114.26,0,0,0,0,203.4H28.3Z"/><path class="cls-2" d="M32.1,126.3a119.13,119.13,0,0,0-20.2,28.9l40.2-9.1Z"/><path class="cls-2" d="M66.5,101.2A116,116,0,0,0,37,121.5l20,19.9Z"/><path class="cls-2" d="M114.5,89.5a122,122,0,0,0-34.8,6.3l34.8,21.8Z"/><polygon class="cls-2" points="117.9 128.6 134.1 144.7 101.7 144.7 117.9 128.6"/><polygon class="cls-2" points="173.5 151.5 173.5 174.3 150.6 151.5 173.5 151.5"/><polygon class="cls-2" points="196.6 206.8 180.4 222.9 180.4 190.7 196.6 206.8"/><polygon class="cls-2" points="173.5 262.1 150.6 262.1 173.5 239.3 173.5 262.1"/><polygon class="cls-2" points="118 285 101.8 268.9 134.2 268.9 118 285"/><polygon class="cls-2" points="62.3 262.1 62.3 239.3 85.2 262.1 62.3 262.1"/><polygon class="cls-2" points="39.3 206.8 55.5 190.7 55.5 222.9 39.3 206.8"/><polygon class="cls-2" points="62.3 151.5 85.2 151.5 62.3 174.3 62.3 151.5"/><path id="Cabeza_Bomba" data-name="Cabeza Bomba" class="cls-1" d="M162.5,90.8c3-3.7,9.7-11.2,10.7-12.4,1-1.4,3.4-1.9,6.8-1.2,3.5.5,9.3,1.9,18.9,8.8,10.4,7.4,13.5,14.1,14.6,16.1,2,3.6.5,5.7.2,6.4-.1.3-1.1,2.4-2.3,4.7s-2.8,5.1-3.9,6.9C200.3,112.2,183.1,98.9,162.5,90.8Z"/><g id="BAM"><path class="cls-1" d="M93.4,231.5a77.93,77.93,0,0,0-1.2-14.9,41.74,41.74,0,0,0-3.5-10.5c2.6-5.5,3.9-13.4,3.9-23.8,0-9.5-1-17-2.9-22.6-.3-.8-.6-1.5-.9-2.2L62.4,183.8v45.8l27.2,27q.6-1.35,1.2-3C92.5,248.2,93.4,240.8,93.4,231.5ZM75.5,173.7h.8c2.3,0,3.5,3.6,3.5,10.7q0,6-.9,8.4a3.16,3.16,0,0,1-3.1,2.4h-.3Zm3.7,61.5a3.35,3.35,0,0,1-3.2,2.6h-.4V213.9h.9c2.5,0,3.7,4.2,3.7,12.5A29.17,29.17,0,0,1,79.2,235.2Z"/><path class="cls-1" d="M104.9,151.5,94.6,261.8l.3.3h12.9l1.7-18.7h9.7l1.7,18.7h13.2L123.7,151.5H104.9Zm7,65.8,2.4-27.5,2.4,27.5Z"/><polygon class="cls-1" points="157 167.4 155.3 174.5 152.6 163.1 141 151.5 137.1 151.5 137.1 262.1 140.9 262.1 150.3 252.8 150.3 206.7 155.3 228.1 160.3 206.7 160.3 242.9 173.5 229.7 173.5 183.9 157 167.4"/></g><g id="Chispa"><path class="cls-1" d="M204.1,66.5a6.24,6.24,0,0,0-3,5.1c-5,2.2-8,5.7-8.2,6.7l2.8,1.6c1.1-5.2,11.1-8.2,18.8-9.5a22,22,0,0,0-10.6.2c.7-3.6,7.8-4.8,12.4-4.8a9.12,9.12,0,0,0-4.9-1.2C211.6,64.3,204.1,66.5,204.1,66.5Z"/><path class="cls-1" d="M216.2,79.2c1.1,4.4-.8,7.2-1.8,8A8.37,8.37,0,0,1,208,89a29.25,29.25,0,0,1,2.7,3.1c0,.6,8.8-4,8.2-10.3h.5l.4-2.4A5.08,5.08,0,0,1,216.2,79.2Z"/><polygon class="cls-1" points="211 3.3 230.8 31.9 231.8 43.1 223.2 35.9 211 3.3"/><polygon class="cls-1" points="186.5 32.2 220.9 38.5 229.6 45.7 218.3 46.7 186.5 32.2"/><polygon class="cls-1" points="189.8 69.9 218.6 50.2 229.8 49.2 222.6 57.8 189.8 69.9"/><polygon class="cls-1" points="218.9 94.2 225.2 60 232.5 51.4 233.5 62.6 218.9 94.2"/><polygon class="cls-1" points="256.8 91 236.9 62.3 236 51.1 244.6 58.4 256.8 91"/><polygon class="cls-1" points="281.3 62.1 246.8 55.7 238.2 48.5 249.5 47.5 281.3 62.1"/><polygon class="cls-1" points="278 24.4 249.2 44.1 237.9 45 245.2 36.5 278 24.4"/><polygon class="cls-1" points="248.9 0 242.5 34.2 235.3 42.8 234.3 31.6 248.9 0"/></g></g></g></svg>