<?xml version="1.0" encoding="utf-8"?>
<!-- Generator: Adobe Illustrator 21.0.0, SVG Export Plug-In . SVG Version: 6.00 Build 0)  -->
<svg version="1.1" id="Layer_1" xmlns="http://www.w3.org/2000/svg" xmlns:xlink="http://www.w3.org/1999/xlink" x="0px" y="0px"
	 viewBox="0 0 281.3 324.1" style="enable-background:new 0 0 281.3 324.1;" xml:space="preserve">
<style type="text/css">
	.st0{fill:#D5AF72;}
	.st1{fill:#F1BB6F;}
</style>
<title>Asset 1</title>
<g>
	<path class="st0" d="M156.7,96c-11.4-3.9-23.3-6.1-35.3-6.4v28.1L156.7,96z"/>
	<path class="st0" d="M198.9,121.5c-8.6-8.1-18.4-14.9-29.1-20.1l9.1,39.9L198.9,121.5z"/>
	<path class="st0" d="M224.2,155.7c-5.2-10.8-12.1-20.7-20.4-29.4l-20,19.9L224.2,155.7z"/>
	<path class="st0" d="M235.9,203.4c-0.3-11.8-2.4-23.5-6.3-34.6l-22,34.6H235.9z"/>
	<path class="st0" d="M229.4,245.3c4-11.3,6.2-23.1,6.5-35.1h-28.3L229.4,245.3z"/>
	<path class="st0" d="M203.7,287.3c8.1-8.6,14.9-18.3,20.2-28.9l-40.2,9.1L203.7,287.3z"/>
	<path class="st0" d="M169.3,312.4c10.9-5.2,20.8-12,29.6-20.3l-20-19.9L169.3,312.4z"/>
	<path class="st0" d="M121.3,324.1c11.9-0.3,23.7-2.4,34.9-6.3L121.3,296V324.1z"/>
	<path class="st0" d="M79.2,317.6c11.4,4,23.3,6.1,35.3,6.4v-28.1L79.2,317.6z"/>
	<path class="st0" d="M37,292.1c8.7,8.1,18.5,14.9,29.1,20.1L57,272.3L37,292.1z"/>
	<path class="st0" d="M11.7,257.9c5.3,10.8,12.1,20.7,20.4,29.4l20-19.9L11.7,257.9z"/>
	<path class="st0" d="M0,210.2c0.3,11.8,2.4,23.5,6.3,34.7l21.9-34.7H0z"/>
	<path class="st0" d="M6.5,168.3c-4,11.3-6.2,23.1-6.5,35.1h28.3L6.5,168.3z"/>
	<path class="st0" d="M32.1,126.3c-8.1,8.6-14.9,18.3-20.2,28.9l40.2-9.1L32.1,126.3z"/>
	<path class="st0" d="M66.5,101.2c-10.8,5.2-20.8,12-29.5,20.3l20,19.9L66.5,101.2z"/>
	<path class="st0" d="M114.5,89.5c-11.8,0.4-23.6,2.5-34.8,6.3l34.8,21.8V89.5z"/>
	<polygon class="st0" points="117.9,128.6 134.1,144.7 101.7,144.7 	"/>
	<polygon class="st0" points="173.5,151.5 173.5,174.3 150.6,151.5 	"/>
	<polygon class="st0" points="196.6,206.8 180.4,222.9 180.4,190.7 	"/>
	<polygon class="st0" points="173.5,262.1 150.6,262.1 173.5,239.3 	"/>
	<polygon class="st0" points="118,285 101.8,268.9 134.2,268.9 	"/>
	<polygon class="st0" points="62.3,262.1 62.3,239.3 85.2,262.1 	"/>
	<polygon class="st0" points="39.3,206.8 55.5,190.7 55.5,222.9 	"/>
	<polygon class="st0" points="62.3,151.5 85.2,151.5 62.3,174.3 	"/>
</g>
<g>
	<polygon class="st1" points="123.4,124.4 143.8,144.7 172.7,144.6 162.5,100.4 	"/>
	<polygon class="st1" points="180.4,152.4 180.4,181.1 200.8,201.3 225.1,162.9 	"/>
	<polygon class="st1" points="200.8,212.2 180.4,232.5 180.4,261.2 224.9,251.1 	"/>
	<polygon class="st1" points="172.7,268.9 143.8,268.9 123.4,289.2 162.1,313.4 	"/>
	<polygon class="st1" points="112.5,289.2 92.1,268.9 63.2,269 73.4,313.2 	"/>
	<polygon class="st1" points="55.5,261.2 55.5,232.5 35,212.3 10.8,250.7 	"/>
	<polygon class="st1" points="35.1,201.4 55.5,181.1 55.4,152.4 11,162.5 	"/>
	<polygon class="st1" points="63.2,144.7 92.1,144.7 112.5,124.4 73.8,100.3 	"/>
	<path id="Cabeza_Bomba" class="st1" d="M162.5,90.8c3-3.7,9.7-11.2,10.7-12.4c1-1.4,3.4-1.9,6.8-1.2c3.5,0.5,9.3,1.9,18.9,8.8
		c10.4,7.4,13.5,14.1,14.6,16.1c2,3.6,0.5,5.7,0.2,6.4c-0.1,0.3-1.1,2.4-2.3,4.7s-2.8,5.1-3.9,6.9
		C200.3,112.2,183.1,98.9,162.5,90.8z"/>
	<g id="BAM">
		<path class="st1" d="M93.4,231.5c0.1-5-0.3-10-1.2-14.9c-0.7-3.6-1.9-7.2-3.5-10.5c2.6-5.5,3.9-13.4,3.9-23.8c0-9.5-1-17-2.9-22.6
			c-0.3-0.8-0.6-1.5-0.9-2.2l-26.4,26.3v45.8l27.2,27c0.4-0.9,0.8-1.9,1.2-3C92.5,248.2,93.4,240.8,93.4,231.5z M75.5,173.7h0.8
			c2.3,0,3.5,3.6,3.5,10.7c0,4-0.3,6.8-0.9,8.4c-0.4,1.4-1.6,2.4-3.1,2.4h-0.3V173.7z M79.2,235.2c-0.3,1.5-1.7,2.6-3.2,2.6h-0.4
			v-23.9h0.9c2.5,0,3.7,4.2,3.7,12.5C80.3,229.4,80,232.3,79.2,235.2z"/>
		<path class="st1" d="M104.9,151.5L94.6,261.8l0.3,0.3h12.9l1.7-18.7h9.7l1.7,18.7h13.2l-10.4-110.6H104.9z M111.9,217.3l2.4-27.5
			l2.4,27.5H111.9z"/>
		<polygon class="st1" points="157,167.4 155.3,174.5 152.6,163.1 141,151.5 137.1,151.5 137.1,262.1 140.9,262.1 150.3,252.8 
			150.3,206.7 155.3,228.1 160.3,206.7 160.3,242.9 173.5,229.7 173.5,183.9 		"/>
	</g>
	<g id="Chispa">
		<path class="st1" d="M204.1,66.5c-1.8,1.1-2.9,3-3,5.1c-5,2.2-8,5.7-8.2,6.7l2.8,1.6c1.1-5.2,11.1-8.2,18.8-9.5
			c-3.5-0.8-7.1-0.7-10.6,0.2c0.7-3.6,7.8-4.8,12.4-4.8c-1.5-0.9-3.2-1.3-4.9-1.2C211.6,64.3,204.1,66.5,204.1,66.5z"/>
		<path class="st1" d="M216.2,79.2c1.1,4.4-0.8,7.2-1.8,8c-1.8,1.5-4.1,2.1-6.4,1.8c1,1,1.9,2,2.7,3.1c0,0.6,8.8-4,8.2-10.3h0.5
			l0.4-2.4C218.6,79.8,217.3,79.7,216.2,79.2z"/>
		<polygon class="st1" points="211,3.3 230.8,31.9 231.8,43.1 223.2,35.9 		"/>
		<polygon class="st1" points="186.5,32.2 220.9,38.5 229.6,45.7 218.3,46.7 		"/>
		<polygon class="st1" points="189.8,69.9 218.6,50.2 229.8,49.2 222.6,57.8 		"/>
		<polygon class="st1" points="218.9,94.2 225.2,60 232.5,51.4 233.5,62.6 		"/>
		<polygon class="st1" points="256.8,91 236.9,62.3 236,51.1 244.6,58.4 		"/>
		<polygon class="st1" points="281.3,62.1 246.8,55.7 238.2,48.5 249.5,47.5 		"/>
		<polygon class="st1" points="278,24.4 249.2,44.1 237.9,45 245.2,36.5 		"/>
		<polygon class="st1" points="248.9,0 242.5,34.2 235.3,42.8 234.3,31.6 		"/>
	</g>
</g>
</svg>
